<svg viewBox="-40 -80 3279.9999999999995 1999.9999999999995" xmlns="http://www.w3.org/2000/svg" xmlns:xlink="http://www.w3.org/1999/xlink" xmlns:blush="http://design.blush" overflow="visible" width="3279.9999999999995px" height="1999.9999999999995px"><defs><polygon id="masterscenesonline-searching-path-5" points="0.885 0.4042 225.003 0.4042 225.003 229 0.885 229"/><polygon id="masterscenesonline-searching-path-7" points="0.354636271 0.4782 167.3115 0.4782 167.3115 15 0.354636271 15"/><path d="M363.685,181.685 C363.685,81.345 282.34,0 182,0 C81.66,0 0.315,81.345 0.315,181.685 C0.315,282.02 81.66,363.365 182,363.365 C282.34,363.365 363.685,282.02 363.685,181.685" id="masterscenesonline-searching-path-1"/><path d="M363.685,181.685 C363.685,81.345 282.34,0 182,0 C81.66,0 0.315,81.345 0.315,181.685 C0.315,282.02 81.66,363.365 182,363.365 C282.34,363.365 363.685,282.02 363.685,181.685" id="masterscenesonline-searching-path-3"/></defs><g id="Master/Scenes/Online Searching" stroke="none" stroke-width="1" fill="none" fill-rule="evenodd" blush:viewBox="-32 136 3263.9999999999995 1743.9999999999998" blush:i="0"><g id="Background" transform="translate(-112.000000, -177.000000)" blush:i="0.0"><g id="Outdoor Plants" transform="translate(2557.000000, 1085.000000) scale(1 1)" blush:width="751" blush:height="965" blush:component="Outdoor Plants" blush:i="0.0.0" blush:value="Bush" blush:viewBox="97.9775064267352 685.1499999999999 559.87146529563 279.84999999999997"><g id="Outdoor Plants/Bush" stroke="none" stroke-width="1" fill="none" fill-rule="evenodd" blush:viewBox="97.9775064267352 685.1499999999999 559.87146529563 279.84999999999997" blush:i="0.0.0.0"><g id="Group-16-Copy" transform="translate(98.000000, 689.000000)" blush:i="0.0.0.0.0"><path d="M2.39500229,275.969448 C4.95578,275.610539 7.81571397,276.244612 10.3764917,275.885703 L558,275.885703 C557.748709,255.057012 545.866222,224.872758 527.67752,214.67974 C509.500785,204.498686 485.903338,204.821704 468.013793,215.46934 C476.079046,172.735231 481.918576,128.086941 470.155752,86.2022508 C458.41686,44.3175605 424.971188,5.75876099 381.773022,0.590470148 C341.267263,-4.24283888 301.934196,21.2038153 278.611973,54.6661058 C255.28975,88.1283962 244.831246,128.637268 234.815494,168.165122 C235.952288,149.465959 226.678444,130.479668 211.253946,119.855959 C195.817483,109.23225 174.768847,107.365923 157.704973,115.094432 C138.654702,123.720214 125.982442,142.814177 120.107013,162.889159 C114.24355,182.976104 114.255516,204.223522 114.315347,225.135958 C102.109771,197.476031 66.8212974,182.581304 38.4971814,193.133231 C10.1610992,203.697122 -6.48395591,247.077267 2.39500229,275.969448" id="Fill-1" fill="#F67A49" blush:i="0.0.0.0.0.0"/><path d="M118.397008,275.974803 C119.891241,275.760692 121.552828,276.153228 123.047061,275.927223 L442,275.927223 C441.856554,263.85377 434.923314,246.356186 424.344146,240.456253 C413.753025,234.556319 400.018038,234.734745 389.59427,240.920159 C394.292138,216.142818 397.687034,190.247344 390.849426,165.969594 C383.999863,141.691845 364.515068,119.341089 339.352189,116.343542 C315.76722,113.536316 292.863621,128.286149 279.27208,147.686938 C265.692493,167.087727 259.607977,190.556615 253.762539,213.478332 C254.420001,202.641962 249.02881,191.639062 240.039506,185.489334 C231.050202,179.32771 218.785539,178.233367 208.85188,182.717792 C197.758697,187.725599 190.37121,198.787974 186.952406,210.42131 C183.545555,222.066541 183.545555,234.389789 183.581417,246.498926 C176.480823,230.476325 155.92018,221.840536 139.423851,227.966474 C122.915568,234.080518 113.220986,259.226605 118.397008,275.974803" id="Fill-4" fill="#FFB201" blush:i="0.0.0.0.0.1"/></g></g></g><g id="Screen" transform="translate(591.000000, 705.000000) scale(1 1)" blush:width="2178" blush:height="1348" blush:component="Screen" blush:i="0.0.1" blush:value="Laptop 2" blush:viewBox="0 -7.634304207119726 2177.9999999999995 1363.2686084142395"><g id="Screen/Laptop 2" stroke="none" stroke-width="1" fill="none" fill-rule="evenodd" blush:viewBox="0 -7.634304207119726 2177.9999999999995 1363.2686084142395" blush:i="0.0.1.0"><path d="M2021.3995,1329.31 L156.8995,1329.31 C116.6695,1329.31 84.0595,1296.705 84.0595,1256.475 L84.0595,72.835 C84.0595,32.61 116.6695,-2.27373675e-13 156.8995,-2.27373675e-13 L2021.3995,-2.27373675e-13 C2061.6295,-2.27373675e-13 2094.2345,32.61 2094.2345,72.835 L2094.2345,1256.475 C2094.2345,1296.705 2061.6295,1329.31 2021.3995,1329.31" id="Fill-1" fill="#008BF2" blush:i="0.0.1.0.0"/><path d="M2088.885,1347.308 L88.985,1347.308 C39.84,1347.308 0,1307.463 0,1258.318 L0,1230.993 L2177.875,1230.993 L2177.875,1258.318 C2177.875,1307.463 2138.03,1347.308 2088.885,1347.308" id="Fill-4" fill="#276DFF" blush:i="0.0.1.0.1"/><polygon id="Fill-7" fill="#FFF" points="138.0175 1175.397 2034.6575 1175.397 2034.6575 52.812 138.0175 52.812" blush:i="0.0.1.0.2"/><polygon id="Fill-9" fill="#090E2B" points="890.987 1230.9945 918.012 1273.9845 1298.292 1273.9845 1323.392 1230.9945" blush:i="0.0.1.0.3"/><g id="UI Elements" transform="translate(456.000000, 156.000000) scale(1 1)" blush:width="1101" blush:height="811" blush:component="UI Elements" blush:i="0.0.1.0.4" blush:value="UI Card 2" blush:viewBox="143.13 107.98641304347825 814.7400000000001 595.0271739130434"><g id="UI Elements/UI Card 2" stroke="none" stroke-width="1" fill="none" fill-rule="evenodd" blush:viewBox="143.13 107.98641304347825 814.7400000000001 595.0271739130434" blush:i="0.0.1.0.4.0"><g id="interface" transform="translate(143.000000, 108.000000)" blush:i="0.0.1.0.4.0.0"><path d="M796.095175,592 L61.9048254,592 C52.5681131,592 45,584.43436 45,575.100698 L45,56.9014958 C45,47.5678339 52.5681131,40 61.9048254,40 L796.095175,40 C805.431887,40 813,47.5678339 813,56.9014958 L813,575.100698 C813,584.43436 805.431887,592 796.095175,592 Z" id="Stroke-1-Copy-3" fill="#090E2B" blush:i="0.0.1.0.4.0.0.0"/><path d="M754.095175,555 L19.9048254,555 C10.5681131,555 3,547.43436 3,538.100698 L3,19.9014958 C3,10.5678339 10.5681131,3 19.9048254,3 L754.095175,3 C763.431887,3 771,10.5678339 771,19.9014958 L771,538.100698 C771,547.43436 763.431887,555 754.095175,555 Z" id="Stroke-1-Copy-2" fill="#FFB201" blush:i="0.0.1.0.4.0.0.1"/><path d="M754.095175,0 L19.9048254,0 C8.91177633,0 0,8.91046219 0,19.9014958 L0,538.100698 C0,549.091433 8.91147822,558 19.9048254,558 L754.095175,558 C765.088522,558 774,549.091433 774,538.100698 L774,19.9014958 C774,8.91046219 765.088224,0 754.095175,0 Z M19.9048254,6 L754.095175,6 C761.774713,6 768,12.2243688 768,19.9014958 L768,538.100698 C768,545.777286 761.775252,552 754.095175,552 L19.9048254,552 C12.2247479,552 6,545.777286 6,538.100698 L6,19.9014958 C6,12.2243688 12.2252868,6 19.9048254,6 Z" id="Stroke-1-Copy-4" fill="#090E2B" fill-rule="nonzero" blush:i="0.0.1.0.4.0.0.2"/><rect id="Rectangle-Copy-2" fill="#FFF" x="84" y="341" width="536" height="25" rx="12.5" blush:i="0.0.1.0.4.0.0.3"/><rect id="Rectangle-Copy-3" fill-opacity=".6" fill="#FFF" x="85" y="424" width="396" height="25" rx="12.5" blush:i="0.0.1.0.4.0.0.4"/><path d="M235.177833,110.81867 C227.185538,104.768093 217.382289,103.427639 207.809374,106.828905 C197.973601,110.323565 189.221893,118.526773 183.646729,129.991287 C177.384572,142.868502 175.420176,159.052394 178.619243,177.174179 C182.121285,197.012233 190.573939,213.94983 202.695283,227.017574 L203.281,227.643 L204.136979,227.092052 C240.264292,203.530099 256.549408,177.547747 253.293204,149.29804 L253.103783,147.80912 C250.655617,130.214335 244.247467,117.684846 235.177833,110.81867 Z M505.842035,232.426649 L523.827521,217.528033 C528.861168,213.397292 532.435677,210.610149 535.794008,208.241442 C544.837025,201.863199 552.104066,198.860832 560.543814,198.437223 C568.776183,198.024022 578.096647,200.09358 591.815736,205.152633 L595.844784,206.657784 C604.219635,209.820062 609.696003,212.190744 646.595195,228.237346 C648.62106,229.118348 649.549156,231.474829 648.668154,233.500695 C647.787152,235.52656 645.430671,236.454655 643.404805,235.573654 L616.305789,223.807985 C602.625476,217.896342 598.404268,216.172107 592.715497,214.027871 L589.751282,212.919169 C576.56553,208.011399 567.998703,206.073116 560.944847,206.427165 C554.360703,206.757637 548.573312,209.095584 540.929133,214.411813 L540.405031,214.778909 C537.226418,217.020856 533.770971,219.716184 528.850558,223.7549 L511.514534,238.120007 C510.961685,238.574623 510.466703,238.980504 510.047778,239.322454 C496.512415,250.370774 484.631585,251.678075 474.648986,244.098099 C467.468896,238.64612 462.189507,229.836545 455.74709,214.854426 L454.956757,212.979018 C453.652739,209.854431 450.088177,201.329237 448.669142,198.12545 L448.445809,197.626142 C444.897603,189.792141 442.048006,185.569319 439.684227,184.503585 C437.781041,183.645514 434.932355,185.322008 430.499974,191.882993 L429.538477,193.314532 C419.6629,207.895433 412.080714,214.210184 403.216181,215.935344 L402.673279,216.036778 C400.263009,216.467382 398.237762,216.553963 394.262408,216.496152 L391.572079,216.450832 C384.018715,216.356451 379.70279,216.848177 373.315547,218.985577 C364.271413,222.012067 353.865627,228.07077 341.218444,238.220629 L339.854772,239.323817 C310.35146,263.379578 272.018215,270.264603 237.983138,258.861028 C224.727086,254.419541 212.843117,247.464548 202.81987,238.379492 L202.154,237.769 L202.062088,237.825611 C175.845262,253.744999 141.02884,268.371023 97.695117,281.745545 L94.1629089,282.827224 C92.0491915,283.469481 89.8150329,282.276626 89.1727761,280.162909 C88.5305192,278.049191 89.7233737,275.815033 91.8370911,275.172776 C135.055196,262.040877 169.546753,247.807206 195.398066,232.515664 L196.358,231.943 L196.017709,231.570961 C183.545315,217.787504 174.77398,200.185397 170.95583,179.747194 L170.741057,178.564927 C167.257064,158.829121 169.429049,140.934983 176.452313,126.492661 C182.917449,113.198048 193.251996,103.511204 205.131,99.2905822 C217.194332,95.0044681 229.823674,96.7313505 240.006568,104.440322 C250.914953,112.698528 258.306392,127.150586 261.027448,146.706609 C265.47074,178.640215 248.443666,207.22332 210.263218,232.617166 L209.177,233.33 L209.630305,233.727412 C218.289656,241.242055 228.382564,247.069245 239.563664,250.947815 L240.524701,251.275486 C271.965035,261.809683 307.429352,255.439945 334.799364,233.123587 C348.763568,221.737762 360.40769,214.868966 370.776835,211.39908 C378.368938,208.858491 383.541892,208.318965 392.318932,208.460773 L394.263558,208.495215 C397.913687,208.54986 399.585337,208.474657 401.483591,208.121571 L401.687943,208.08267 C408.1818,206.818876 414.291337,201.672247 423.266349,188.307125 L423.608556,187.795629 C430.082118,178.084023 436.43993,174.26535 442.97236,177.210562 C447.611028,179.301953 451.107421,184.309349 455.260164,193.291617 L455.733186,194.325516 C457.283846,197.74918 462.812161,211.03081 462.801668,211.006234 L463.373744,212.336459 C469.153866,225.677214 473.858267,233.452783 479.486901,237.726711 C486.097329,242.746135 493.743837,242.039973 504.226296,233.738326 L505.481564,232.722173 C505.597576,232.627151 505.717824,232.528567 505.842035,232.426649 Z" id="Path-7" fill="#FFF" fill-rule="nonzero" blush:i="0.0.1.0.4.0.0.5"/></g></g></g><g id="UI Elements" transform="translate(616.000000, 262.000000) scale(1 1)" blush:width="1101" blush:height="811" blush:component="UI Elements" blush:i="0.0.1.0.5" blush:value="UI Card 2" blush:viewBox="143.13 107.98641304347825 814.7400000000001 595.0271739130434"><g id="UI Elements/UI Card 2" stroke="none" stroke-width="1" fill="none" fill-rule="evenodd" blush:viewBox="143.13 107.98641304347825 814.7400000000001 595.0271739130434" blush:i="0.0.1.0.5.0"><g id="interface" transform="translate(143.000000, 108.000000)" blush:i="0.0.1.0.5.0.0"><path d="M796.095175,592 L61.9048254,592 C52.5681131,592 45,584.43436 45,575.100698 L45,56.9014958 C45,47.5678339 52.5681131,40 61.9048254,40 L796.095175,40 C805.431887,40 813,47.5678339 813,56.9014958 L813,575.100698 C813,584.43436 805.431887,592 796.095175,592 Z" id="Stroke-1-Copy-3" fill="#090E2B" blush:i="0.0.1.0.5.0.0.0"/><path d="M754.095175,555 L19.9048254,555 C10.5681131,555 3,547.43436 3,538.100698 L3,19.9014958 C3,10.5678339 10.5681131,3 19.9048254,3 L754.095175,3 C763.431887,3 771,10.5678339 771,19.9014958 L771,538.100698 C771,547.43436 763.431887,555 754.095175,555 Z" id="Stroke-1-Copy-2" fill="#FFB201" blush:i="0.0.1.0.5.0.0.1"/><path d="M754.095175,0 L19.9048254,0 C8.91177633,0 0,8.91046219 0,19.9014958 L0,538.100698 C0,549.091433 8.91147822,558 19.9048254,558 L754.095175,558 C765.088522,558 774,549.091433 774,538.100698 L774,19.9014958 C774,8.91046219 765.088224,0 754.095175,0 Z M19.9048254,6 L754.095175,6 C761.774713,6 768,12.2243688 768,19.9014958 L768,538.100698 C768,545.777286 761.775252,552 754.095175,552 L19.9048254,552 C12.2247479,552 6,545.777286 6,538.100698 L6,19.9014958 C6,12.2243688 12.2252868,6 19.9048254,6 Z" id="Stroke-1-Copy-4" fill="#090E2B" fill-rule="nonzero" blush:i="0.0.1.0.5.0.0.2"/><rect id="Rectangle-Copy-2" fill="#FFF" x="84" y="341" width="536" height="25" rx="12.5" blush:i="0.0.1.0.5.0.0.3"/><rect id="Rectangle-Copy-3" fill-opacity=".6" fill="#FFF" x="85" y="424" width="396" height="25" rx="12.5" blush:i="0.0.1.0.5.0.0.4"/><path d="M235.177833,110.81867 C227.185538,104.768093 217.382289,103.427639 207.809374,106.828905 C197.973601,110.323565 189.221893,118.526773 183.646729,129.991287 C177.384572,142.868502 175.420176,159.052394 178.619243,177.174179 C182.121285,197.012233 190.573939,213.94983 202.695283,227.017574 L203.281,227.643 L204.136979,227.092052 C240.264292,203.530099 256.549408,177.547747 253.293204,149.29804 L253.103783,147.80912 C250.655617,130.214335 244.247467,117.684846 235.177833,110.81867 Z M505.842035,232.426649 L523.827521,217.528033 C528.861168,213.397292 532.435677,210.610149 535.794008,208.241442 C544.837025,201.863199 552.104066,198.860832 560.543814,198.437223 C568.776183,198.024022 578.096647,200.09358 591.815736,205.152633 L595.844784,206.657784 C604.219635,209.820062 609.696003,212.190744 646.595195,228.237346 C648.62106,229.118348 649.549156,231.474829 648.668154,233.500695 C647.787152,235.52656 645.430671,236.454655 643.404805,235.573654 L616.305789,223.807985 C602.625476,217.896342 598.404268,216.172107 592.715497,214.027871 L589.751282,212.919169 C576.56553,208.011399 567.998703,206.073116 560.944847,206.427165 C554.360703,206.757637 548.573312,209.095584 540.929133,214.411813 L540.405031,214.778909 C537.226418,217.020856 533.770971,219.716184 528.850558,223.7549 L511.514534,238.120007 C510.961685,238.574623 510.466703,238.980504 510.047778,239.322454 C496.512415,250.370774 484.631585,251.678075 474.648986,244.098099 C467.468896,238.64612 462.189507,229.836545 455.74709,214.854426 L454.956757,212.979018 C453.652739,209.854431 450.088177,201.329237 448.669142,198.12545 L448.445809,197.626142 C444.897603,189.792141 442.048006,185.569319 439.684227,184.503585 C437.781041,183.645514 434.932355,185.322008 430.499974,191.882993 L429.538477,193.314532 C419.6629,207.895433 412.080714,214.210184 403.216181,215.935344 L402.673279,216.036778 C400.263009,216.467382 398.237762,216.553963 394.262408,216.496152 L391.572079,216.450832 C384.018715,216.356451 379.70279,216.848177 373.315547,218.985577 C364.271413,222.012067 353.865627,228.07077 341.218444,238.220629 L339.854772,239.323817 C310.35146,263.379578 272.018215,270.264603 237.983138,258.861028 C224.727086,254.419541 212.843117,247.464548 202.81987,238.379492 L202.154,237.769 L202.062088,237.825611 C175.845262,253.744999 141.02884,268.371023 97.695117,281.745545 L94.1629089,282.827224 C92.0491915,283.469481 89.8150329,282.276626 89.1727761,280.162909 C88.5305192,278.049191 89.7233737,275.815033 91.8370911,275.172776 C135.055196,262.040877 169.546753,247.807206 195.398066,232.515664 L196.358,231.943 L196.017709,231.570961 C183.545315,217.787504 174.77398,200.185397 170.95583,179.747194 L170.741057,178.564927 C167.257064,158.829121 169.429049,140.934983 176.452313,126.492661 C182.917449,113.198048 193.251996,103.511204 205.131,99.2905822 C217.194332,95.0044681 229.823674,96.7313505 240.006568,104.440322 C250.914953,112.698528 258.306392,127.150586 261.027448,146.706609 C265.47074,178.640215 248.443666,207.22332 210.263218,232.617166 L209.177,233.33 L209.630305,233.727412 C218.289656,241.242055 228.382564,247.069245 239.563664,250.947815 L240.524701,251.275486 C271.965035,261.809683 307.429352,255.439945 334.799364,233.123587 C348.763568,221.737762 360.40769,214.868966 370.776835,211.39908 C378.368938,208.858491 383.541892,208.318965 392.318932,208.460773 L394.263558,208.495215 C397.913687,208.54986 399.585337,208.474657 401.483591,208.121571 L401.687943,208.08267 C408.1818,206.818876 414.291337,201.672247 423.266349,188.307125 L423.608556,187.795629 C430.082118,178.084023 436.43993,174.26535 442.97236,177.210562 C447.611028,179.301953 451.107421,184.309349 455.260164,193.291617 L455.733186,194.325516 C457.283846,197.74918 462.812161,211.03081 462.801668,211.006234 L463.373744,212.336459 C469.153866,225.677214 473.858267,233.452783 479.486901,237.726711 C486.097329,242.746135 493.743837,242.039973 504.226296,233.738326 L505.481564,232.722173 C505.597576,232.627151 505.717824,232.528567 505.842035,232.426649 Z" id="Path-7" fill="#FFF" fill-rule="nonzero" blush:i="0.0.1.0.5.0.0.5"/></g></g></g></g></g><g id="Medium Plants" transform="translate(0.000000, 1250.000000) scale(1 1)" blush:width="845" blush:height="800" blush:component="Medium Plants" blush:i="0.0.2" blush:value="Plant 3" blush:viewBox="211.25 80.76109936575062 426.7249999999999 723.0443974630018"><g id="Medium Plants/Plant 3" stroke="none" stroke-width="1" fill="none" fill-rule="evenodd" blush:viewBox="211.25 80.76109936575062 426.7249999999999 723.0443974630018" blush:i="0.0.2.0"><g id="Group" transform="translate(215.000000, 84.000000)" blush:i="0.0.2.0.0"><path d="M112.880533,293.771571 C72.2193038,211.163092 32.755718,181.121219 20.2319955,171.471577 C31.7926281,194.631785 123.101369,458.278287 135.733483,527.310338 C93.3433125,443.747754 71.4872134,425.696285 63.5834793,417.566804 C42.1911559,395.561848 15.4147691,379.927685 0,372.207616 C6.74873695,381.58313 85.7416546,476.436559 113.680146,559.433088 L135.838322,599 L246.627421,599 C246.627421,599 258.188054,560.566979 276.492093,543.592439 C294.796131,526.619679 363.774357,441.65075 374.3719,391.46763 C348.802317,421.08304 267.492695,526.619679 253.027882,543.592439 C288.674647,442.658364 294.026586,433.333145 324.490079,377.359528 C354.953572,321.384132 418.11073,239.428478 421,237.498906 C388.244282,254.870397 291.937958,315.57786 246.266707,435.847441 C227.181252,486.106622 221.197939,518.114609 221.197939,518.114609 C221.197939,518.114609 241.824632,417.660531 240.859765,319.222084 C239.896675,220.783637 246.627421,0 246.627421,0 C246.627421,0 202.715749,77.0946758 186.442858,202.073242 C180.425007,248.291359 175.348107,438.140602 177.274287,484.065846 C177.274287,484.065846 152.358334,373.975203 112.880533,293.771571 Z" id="Fill-1" fill="#009BA0" blush:i="0.0.2.0.0.0"/><path d="M254.50609,716 L126.947716,716 C108.198988,716 93,690.078415 93,671.268722 L93,544 L292,544 L292,667.710997 C292,688.399168 275.127209,716 254.50609,716" id="Fill-4" fill="#FF00A4" blush:i="0.0.2.0.0.1"/></g></g></g><g id="Flying Objects" opacity=".5" transform="translate(2376.000000, 97.000000) scale(1 1)" blush:width="700" blush:height="800" blush:component="Flying Objects" blush:i="0.0.3" blush:value="Balloon Yellow" blush:viewBox="254.1095890410959 104 191.7808219178082 580.0000000000001"><g id="Flying Objects/Balloon Yellow" stroke="none" stroke-width="1" fill="none" fill-rule="evenodd" blush:viewBox="254.1095890410959 104 191.7808219178082 580.0000000000001" blush:i="0.0.3.0"><g id="Group" transform="translate(255.000000, 104.000000)" blush:i="0.0.3.0.0"><path d="M190,101.527864 C173.391661,-50.3585936 9.95135535,-20.1599229 0.337643154,114.971236 C-4.48660953,171.976224 42.8536945,296.75026 112.350048,233.595581 C156.554168,204.820594 186.627462,154.190975 190,101.527864" id="Fill-1" fill="#FFB201" blush:i="0.0.3.0.0.0"/><path d="M104.545353,273.999437 C122.302093,273.870181 123.802927,264.333729 117.875863,260.315954 C110.254794,255.148694 86.7120292,254.450044 79,255.311418 C81.8099759,264.785551 93.0452847,274.083305 104.545353,273.999437 Z M75.0978957,258 C64.3247337,272.884972 47.9033637,308.505443 58.3312759,315.588738 C65.9463317,320.761876 82.6131909,275.753624 75.0978957,258 Z M81.7497565,272.267035 C78.3480164,313.426075 64.8263176,323.325454 56.8514608,323.084172 C47.7895198,322.810783 42.1050968,302.55573 58.7562802,271.44006 C63.7576423,262.762659 70.621193,253.914025 75.4539698,250 C101.099273,251.918582 136.678175,250.720136 122.948793,271.44006 C115.873933,282.117203 91.9142837,277.354751 87.5958271,273.58362 C89.0772457,278.607737 89.5599037,291.108571 91.3688039,312.608952 C94.2173131,346.475043 86.4536722,344.438293 97.6345553,378.263522 C100.265066,386.223888 99.9385535,401.765506 95.9487029,408.462059 C87.6618664,422.47199 106.508533,433.893977 107.152839,448.095572 C108.393006,455.095674 105.309059,461.010978 100.770822,465.78603 C83.475333,507.48309 116.226407,526.171755 60.3810931,570.475246 C7.94623952,596.746787 78.0932008,546.840296 81.9532214,533.48708 C95.8353438,512.78546 81.2895382,486.981889 91.3688039,466.380479 C96.1298836,459.5915 101.917008,452.799601 97.6345553,444.380994 C67.2446438,403.296869 95.1968515,394.691463 90.1325121,374.725364 C80.9116747,338.37251 87.421584,298.304105 81.7497565,272.267035 Z" id="Fill-4" fill="#090E2B" blush:i="0.0.3.0.0.1"/></g></g></g><g id="Outdoor Plants" transform="translate(2517.000000, 1088.000000) scale(1 1)" blush:width="751" blush:height="965" blush:component="Outdoor Plants" blush:i="0.0.4" blush:value="Bush" blush:viewBox="97.9775064267352 685.1499999999999 559.87146529563 279.84999999999997"><g id="Outdoor Plants/Bush" stroke="none" stroke-width="1" fill="none" fill-rule="evenodd" blush:viewBox="97.9775064267352 685.1499999999999 559.87146529563 279.84999999999997" blush:i="0.0.4.0"><g id="Group-16-Copy" transform="translate(98.000000, 689.000000)" blush:i="0.0.4.0.0"><path d="M2.39500229,275.969448 C4.95578,275.610539 7.81571397,276.244612 10.3764917,275.885703 L558,275.885703 C557.748709,255.057012 545.866222,224.872758 527.67752,214.67974 C509.500785,204.498686 485.903338,204.821704 468.013793,215.46934 C476.079046,172.735231 481.918576,128.086941 470.155752,86.2022508 C458.41686,44.3175605 424.971188,5.75876099 381.773022,0.590470148 C341.267263,-4.24283888 301.934196,21.2038153 278.611973,54.6661058 C255.28975,88.1283962 244.831246,128.637268 234.815494,168.165122 C235.952288,149.465959 226.678444,130.479668 211.253946,119.855959 C195.817483,109.23225 174.768847,107.365923 157.704973,115.094432 C138.654702,123.720214 125.982442,142.814177 120.107013,162.889159 C114.24355,182.976104 114.255516,204.223522 114.315347,225.135958 C102.109771,197.476031 66.8212974,182.581304 38.4971814,193.133231 C10.1610992,203.697122 -6.48395591,247.077267 2.39500229,275.969448" id="Fill-1" fill="#F67A49" blush:i="0.0.4.0.0.0"/><path d="M118.397008,275.974803 C119.891241,275.760692 121.552828,276.153228 123.047061,275.927223 L442,275.927223 C441.856554,263.85377 434.923314,246.356186 424.344146,240.456253 C413.753025,234.556319 400.018038,234.734745 389.59427,240.920159 C394.292138,216.142818 397.687034,190.247344 390.849426,165.969594 C383.999863,141.691845 364.515068,119.341089 339.352189,116.343542 C315.76722,113.536316 292.863621,128.286149 279.27208,147.686938 C265.692493,167.087727 259.607977,190.556615 253.762539,213.478332 C254.420001,202.641962 249.02881,191.639062 240.039506,185.489334 C231.050202,179.32771 218.785539,178.233367 208.85188,182.717792 C197.758697,187.725599 190.37121,198.787974 186.952406,210.42131 C183.545555,222.066541 183.545555,234.389789 183.581417,246.498926 C176.480823,230.476325 155.92018,221.840536 139.423851,227.966474 C122.915568,234.080518 113.220986,259.226605 118.397008,275.974803" id="Fill-4" fill="#FFB201" blush:i="0.0.4.0.0.1"/></g></g></g><g id="Flying Objects" opacity=".5" transform="translate(1017.000000, 400.000000) scale(-1, 1) translate(-1017.000000, -400.000000) translate(667.000000, 0.000000) scale(1 1)" blush:width="700" blush:height="800" blush:component="Flying Objects" blush:i="0.0.5" blush:value="Balloon Red" blush:viewBox="246.1187214611872 136 211.75799086757985 584.0000000000001"><g id="Flying Objects/Balloon Red" stroke="none" stroke-width="1" fill="none" fill-rule="evenodd" blush:viewBox="246.1187214611872 136 211.75799086757985 584.0000000000001" blush:i="0.0.5.0"><g id="Group" transform="translate(246.000000, 137.000000)" blush:i="0.0.5.0.0"><path d="M149.733462,285.734603 C157.805348,279.54733 124.836431,253.662324 120.161114,258.629066 C117.939588,260.988931 139.248923,293.771476 149.733462,285.734603 M86.1666056,282.995283 C95.1123205,293.59321 106.764338,273.462252 111.037176,264.277843 C122.832311,238.928805 77.2415824,272.420712 86.1666056,282.995283 M100.300795,579.794123 C92.0143674,575.010056 138.47669,513.857006 113.251575,477.770702 C110.299901,473.549007 118.940081,466.496386 119.230848,457.799105 C122.459484,441.684398 125.355937,423.424182 117.251562,408.33457 C98.7960546,418.451213 96.7555088,377.803537 116.173912,389.75894 C131.761439,356.831108 126.97198,307.088419 116.68901,272.649372 C97.7270329,309.677586 58.363049,290.166113 92.3663939,257.726132 C103.469034,247.691809 120.600991,248.016755 133.151426,255.333665 C154.493896,267.775187 162.517167,288.762347 155.549975,294.360078 C151.134976,297.906753 138.799381,299.036697 125.022892,277.928224 C130.927102,301.145811 132.951254,326.066115 132.506044,354.691665 C132.278262,369.406074 126.249808,390.345575 123.180793,395.783 C131.333485,416.680909 132.47412,453.698724 122.446541,472.666022 C149.246285,504.684006 108.587223,584.579057 100.300795,579.794123" id="Fill-1" fill="#090E2B" blush:i="0.0.5.0.0.0"/><path d="M208.173357,132.995103 C205.463986,196.578147 148.224495,284.469563 73.1038794,237.934573 C24.2441433,207.668031 -3.509826,160.19487 0.357108028,106.142496 C11.5397013,-50.1285311 223.8484,-27.6724767 208.173357,132.995103" id="Path" fill="#FF0057" blush:i="0.0.5.0.0.1"/><path d="M38.113339,128.891654 C42.1480359,113.398009 14.6564956,114.349394 17.9793987,128.621374 C18.3868228,141.021815 37.9599558,143.299374 38.113339,128.891654" id="Path" fill="#FFF" blush:i="0.0.5.0.0.2"/><path d="M122.516035,121.066751 C123.097213,103.445703 108.90088,102.103914 101.279652,108.245874 C93.6596235,114.387834 92.6135022,128.013544 106.566579,130.866499 C117.298609,133.05997 122.220053,129.993194 122.516035,121.066751" id="Path" fill="#FFF" blush:i="0.0.5.0.0.3"/><path d="M182.391799,126.08795 C198.758265,129.058627 205.424442,100.655213 186.887844,100.801765 C170.959958,101.26064 163.25485,123.261423 182.391799,126.08795" id="Path" fill="#FFF" blush:i="0.0.5.0.0.4"/><path d="M63.3640468,190.825389 C90.2863916,194.985297 71.7617764,151.393355 55.2754801,164.649082 C47.9490361,173.159896 50.3744078,190.537091 63.3640468,190.825389" id="Path" fill="#FFF" blush:i="0.0.5.0.0.5"/><path d="M135.750103,208.918174 C148.077079,215.362847 164.275043,204.550403 167.03213,193.218717 C169.123779,184.621999 164.185638,165.408212 145.472765,174.065297 C127.282055,182.480815 122.382346,196.421621 135.750103,208.918174 Z" id="Path" fill="#FFF" blush:i="0.0.5.0.0.6"/><path d="M40.1252951,61.6784509 C36.0198981,85.6264503 76.1559652,93.026113 76.6089249,68.5195352 C78.620881,38.3611046 45.0778945,31.228118 40.1252951,61.6784509" id="Path" fill="#FFF" blush:i="0.0.5.0.0.7"/><path d="M129.137874,44.035781 C126.699321,78.140298 170.660382,77.4387715 171.871869,50.7219048 C173.68251,28.3571449 132.615359,16.8984789 129.137874,44.035781" id="Path" fill="#FFF" blush:i="0.0.5.0.0.8"/></g></g></g><g id="Floor" transform="translate(112.000000, 2049.500000)" fill="#090E2B" fill-rule="nonzero" blush:i="0.0.6"><path d="M3214.29077,-2.5 C3216.22377,-2.5 3217.79077,-0.932996624 3217.79077,1 C3217.79077,2.8685634 3216.32649,4.39512645 3214.48281,4.49482114 L3214.29077,4.5 L0.290769851,4.5 C-1.64222677,4.5 -3.20923015,2.93299662 -3.20923015,1 C-3.20923015,-0.868563404 -1.74495255,-2.39512645 0.098734648,-2.49482114 L0.290769851,-2.5 L3214.29077,-2.5 Z" id="Path-4-Copy" blush:i="0.0.6.0"/></g></g><g transform="translate(2260.000000, 1123.000000) scale(-1, 1) translate(-2260.000000, -1123.000000) translate(1705.000000, 373.000000) scale(1 1)" blush:has-customizable-colors="true" blush:width="1110" blush:height="1500" id="Master/Character/Standing" blush:component="Master/Character/Standing" blush:i="0.1" blush:value="Standing" blush:viewBox="322.5 75 607.5 1424.9999999999995"><g id="Master/Character/Standing" stroke="none" stroke-width="1" fill="none" fill-rule="evenodd" blush:has-customizable-colors="true" blush:viewBox="322.5 75 607.5 1424.9999999999995" blush:i="0.1.0"><g id="Lower Body/Standing" transform="translate(-64.000000, 629.000000) scale(1 1)" blush:width="1110" blush:height="871" blush:component="Lower Body/Standing" blush:i="0.1.0.0" blush:value="Jeans" blush:viewBox="333 -3.3329081632653015 416.2499999999998 877.6658163265307"><g id="Lower Body/Standing/Jeans" stroke="none" stroke-width="1" fill="none" fill-rule="evenodd" blush:viewBox="333 -3.3329081632653015 416.2499999999998 877.6658163265307" blush:i="0.1.0.0.0"><path d="M388.773381,656.005785 C380.012767,673.251861 377,806.114876 377,806.114876 L414.926828,811 L464,654.745848 C464,654.745848 397.532999,638.75971 388.773381,656.005785" id="leg-1" fill="#ff8282" blush:color="Skin-500" blush:i="0.1.0.0.0.0"/><g id="shoe-1" transform="translate(337.000000, 797.000000)" blush:i="0.1.0.0.0.1"><path d="M2.79930413,53.6278416 C2.79930413,53.6278416 -4.24369587,74.5478416 4.01330413,74.5478416 C29.9303041,74.5478416 66.2323041,74.7318416 88.8463041,74.7318416 C92.3203041,74.7318416 95.3063041,67.0238416 94.3893041,60.9688416 C93.4713041,54.9128416 91.7523041,51.0708416 91.7523041,51.0708416 L2.79930413,53.6278416 Z" id="Fill-9" fill="#FFB201" blush:i="0.1.0.0.0.1.0"/><path d="M80.9297041,4.21874158 C81.8917041,4.96574158 79.7277041,18.0427416 83.3337041,27.0587416 C86.9407041,36.0747416 93.0917041,49.8227416 91.8897041,55.8337416 C90.6877041,61.8447416 72.7507041,72.6197416 44.4887041,58.2227416 C34.7507041,53.2617416 7.77470413,67.7737416 2.96670413,61.1617416 C-1.84229587,54.5497416 11.2067041,39.6807416 23.8297041,26.4577416 C36.4507041,13.2347416 39.4557041,1.07974158 40.5657041,1.22674158 C41.6737041,1.37274158 40.2987041,8.51374158 45.5907041,5.86074158 C51.1967041,3.04974158 52.9817041,0.235741582 56.8877041,0.0117415819 C64.0877041,-0.402258418 70.0757041,10.2577416 73.1997041,12.0597416 C74.9937041,13.0957416 79.9667041,3.47174158 80.9297041,4.21874158" id="Fill-12" fill="#090E2B" blush:i="0.1.0.0.0.1.1"/><path d="M43.0528041,17.6757416 C44.8418041,16.3237416 46.7128041,15.5247416 48.7648041,14.9897416 C50.7958041,14.4737416 52.9338041,14.3217416 55.0258041,14.5547416 C55.5518041,14.5867416 56.0608041,14.7327416 56.5778041,14.8177416 L57.3508041,14.9697416 L58.0998041,15.2007416 C58.5958041,15.3607416 59.1018041,15.4987416 59.5878041,15.6807416 C60.0648041,15.8857416 60.5398041,16.0937416 61.0098041,16.3137416 C61.2428041,16.4237416 61.4828041,16.5247416 61.7108041,16.6437416 L62.3738041,17.0367416 L63.6948041,17.8267416 C64.5278041,18.4167416 65.3208041,19.0527416 66.1108041,19.6837416 C66.6338041,20.1017416 66.7198041,20.8637416 66.3018041,21.3887416 C65.9198041,21.8657416 65.2498041,21.9797416 64.7388041,21.6767416 L64.6068041,21.5997416 C63.8068041,21.1277416 63.0558041,20.5907416 62.2618041,20.1377416 L61.0518041,19.5037416 L60.4498041,19.1857416 C60.2438041,19.0927416 60.0318041,19.0197416 59.8228041,18.9347416 C58.1808041,18.1777416 56.4358041,17.7687416 54.6888041,17.5297416 C52.9338041,17.2867416 51.1548041,17.4327416 49.4178041,17.7747416 C47.7048041,18.1147416 45.9298041,18.7997416 44.5148041,19.6237416 L44.3958041,19.6937416 C43.8158041,20.0297416 43.0728041,19.8337416 42.7358041,19.2547416 C42.4228041,18.7177416 42.5688041,18.0397416 43.0528041,17.6757416" id="Fill-14" fill="#FF0057" blush:i="0.1.0.0.0.1.2"/><path d="M42.4004041,25.8290416 C43.8294041,24.7290416 45.2904041,24.0880416 46.9194041,23.6550416 C48.5234041,23.2240416 50.2244041,23.1020416 51.8844041,23.2860416 C52.3024041,23.3130416 52.7094041,23.4140416 53.1214041,23.4760416 C53.5364041,23.5360416 53.9364041,23.6470416 54.3284041,23.7820416 C54.7214041,23.9100416 55.1224041,24.0220416 55.5074041,24.1680416 L56.6334041,24.6650416 C57.3944041,24.9850416 58.0414041,25.4850416 58.7414041,25.8890416 C59.3944041,26.3580416 60.0054041,26.8790416 60.6124041,27.3910416 C61.1154041,27.8170416 61.1774041,28.5700416 60.7534041,29.0730416 C60.3794041,29.5140416 59.7564041,29.6160416 59.2704041,29.3500416 L59.1324041,29.2750416 C58.5044041,28.9330416 57.9164041,28.5420416 57.3064041,28.2010416 C56.6744041,27.9130416 56.0844041,27.5290416 55.4344041,27.3150416 C54.1904041,26.7250416 52.8624041,26.4620416 51.5504041,26.2390416 C50.2244041,26.0520416 48.8824041,26.1630416 47.5624041,26.3970416 C46.2684041,26.6430416 44.8964041,27.1550416 43.8374041,27.7450416 L43.7084041,27.8170416 C43.1314041,28.1380416 42.4064041,27.9310416 42.0854041,27.3540416 C41.7944041,26.8310416 41.9384041,26.1830416 42.4004041,25.8290416" id="Fill-16" fill="#FF0057" blush:i="0.1.0.0.0.1.3"/></g><path d="M577.66901,658.64952 C573.729705,667.847659 588.473391,800.033994 588.473391,800.033994 L582.913429,813.189064 C582.913429,813.189064 593.202554,831.297056 601.259906,840.001704 C609.318257,848.705352 655.150001,826.452242 647.411188,821.5784 C645.028632,820.077909 637.435609,802.886829 637.54545,798.1271 C638.6868,748.902192 651,654.253152 651,654.253152 C651,654.253152 581.609314,649.45038 577.66901,658.64952" id="leg-2" fill="#ff8282" blush:color="Skin-500" blush:i="0.1.0.0.0.2"/><g id="shoe-2" transform="translate(579.000000, 805.000000)" blush:i="0.1.0.0.0.3"><path d="M168.415792,65.9942 L4.10079156,65.9942 C2.58079156,60.9502 1.25179156,55.6582 1.48579156,51.4722 L166.191792,55.2062 C167.174792,58.3382 167.927792,62.0512 168.415792,65.9942" id="Fill-18" fill="#FFB201" blush:i="0.1.0.0.0.3.0"/><path d="M6.90699156,-2.13162821e-14 C6.90699156,-2.13162821e-14 18.3949916,7.902 21.8639916,15.611 C29.9589916,17.539 60.2549916,18.1 58.4129916,15.719 C52.5329916,8.117 60.2569916,0.666 64.8829916,0.666 C69.5079916,0.666 101.785992,23.463 106.025992,23.463 C110.265992,23.463 153.540992,40.755 158.937992,44.225 C164.334992,47.693 166.495992,56.194 166.495992,56.194 L1.47899156,56.194 C1.47899156,56.194 -4.27200844,12.67 6.90699156,-2.13162821e-14" id="Fill-20" fill="#090E2B" blush:i="0.1.0.0.0.3.1"/><path d="M81.7536916,16.6895 C81.8366916,15.7605 82.0636916,15.0125 82.4526916,14.2105 C82.8316916,13.4255 83.4076916,12.6595 84.2076916,12.0835 C84.9886916,11.4915 86.0176916,11.1475 86.9606916,11.1535 C87.4466916,11.1145 87.8826916,11.2195 88.3266916,11.2965 C88.7526916,11.4095 89.1446916,11.5735 89.5306916,11.7415 C90.1366916,12.0035 90.4146916,12.7075 90.1516916,13.3125 C89.9516916,13.7735 89.4966916,14.0435 89.0246916,14.0315 L88.8096916,14.0245 C88.1936916,14.0065 87.6306916,13.9605 87.1636916,14.0565 C86.6826916,14.1105 86.3066916,14.2685 85.9386916,14.5165 C85.5736916,14.7675 85.2286916,15.1315 84.9086916,15.5885 C84.6086916,16.0325 84.3166916,16.6315 84.1126916,17.1005 L84.0386916,17.2715 C83.7766916,17.8765 83.0726916,18.1545 82.4686916,17.8915 C81.9836916,17.6815 81.7096916,17.1875 81.7536916,16.6895" id="Fill-22" fill="#FF0057" transform="translate(85.999987, 14.567899) rotate(10.000000) translate(-85.999987, -14.567899)" blush:i="0.1.0.0.0.3.2"/><path d="M90.3464916,22.1016 C90.4294916,21.1726 90.6564916,20.4246 91.0444916,19.6226 C91.4234916,18.8376 92.0004916,18.0726 92.7994916,17.4956 C93.5804916,16.9036 94.6094916,16.5606 95.5524916,16.5656 C96.0384916,16.5266 96.4744916,16.6326 96.9184916,16.7086 C97.3454916,16.8216 97.7364916,16.9856 98.1234916,17.1536 C98.7284916,17.4156 99.0064916,18.1206 98.7434916,18.7246 C98.5444916,19.1856 98.0884916,19.4556 97.6164916,19.4446 L97.4014916,19.4376 C96.7854916,19.4186 96.2224916,19.3726 95.7564916,19.4696 C95.2744916,19.5236 94.8984916,19.6806 94.5304916,19.9286 C94.1664916,20.1796 93.8204916,20.5436 93.5014916,21.0006 C93.2014916,21.4446 92.9094916,22.0446 92.7044916,22.5126 L92.6314916,22.6836 C92.3684916,23.2886 91.6654916,23.5666 91.0604916,23.3036 C90.5754916,23.0936 90.3024916,22.6006 90.3464916,22.1016" id="Fill-24" fill="#FF0057" transform="translate(94.592288, 19.980027) rotate(10.000000) translate(-94.592288, -19.980027)" blush:i="0.1.0.0.0.3.3"/></g><g id="jeans" transform="translate(353.000000, 0.000000)" blush:i="0.1.0.0.0.4"><path d="M336.569421,0.125908208 L214.572421,0.125908208 C214.572421,0.125908208 195.769755,0.125908208 158.164421,0.125908208 C133.167421,27.1249082 92.0604213,115.524908 91.1514213,206.775908 C90.6774213,254.281908 96.6264213,310.738908 79.1944213,395.157908 C70.2574213,438.438908 16.9604213,496.904908 0.928421315,665.147908 C26.1254213,685.799908 132.627421,686.221908 142.689421,673.641908 C158.259421,563.490908 188.004421,444.492908 219.036421,322.690908 C221.461421,381.464908 215.575421,411.723908 209.375421,446.540908 C190.467421,552.712908 180.494421,609.334908 179.320421,675.856908 C202.985421,697.830908 266.368421,688.181908 308.495421,668.970908 C308.495421,668.970908 320.224421,552.917908 324.337421,493.163908 C329.616421,416.474908 361.265421,268.272908 359.187421,170.176908 C357.283421,80.2609082 336.569421,0.125908208 336.569421,0.125908208 Z" id="cloth" fill="#FFB201" blush:i="0.1.0.0.0.4.0"/><path d="M276.698121,138.124108 C273.180121,139.201108 268.510121,140.565108 267.166121,144.116108 C266.701121,145.306108 265.944121,147.885108 265.552121,149.147108 C250.213121,204.295108 234.765121,266.542108 219.594121,321.681108 C219.436121,322.344108 218.852121,323.154108 219.035121,322.447108 C222.604121,306.334108 226.032121,290.098108 229.937121,274.067108 C240.234121,232.638108 250.572121,189.257108 262.446121,148.216108 C263.470121,145.187108 264.151121,141.121108 267.052121,139.303108 C267.900121,137.818108 278.876121,135.650108 276.698121,138.124108" id="line" fill="#090E2B" blush:i="0.1.0.0.0.4.1"/></g></g></g><g id="Upper Body/Standing" transform="translate(69.000000, -172.000000) scale(1 1)" blush:width="906" blush:height="1041" blush:component="Upper Body/Standing" blush:i="0.1.0.1" blush:value="Cross Hand 2" blush:viewBox="304.603448275862 405.99 301.99999999999994 416.3999999999998"><g id="Upper Body/Standing/Cross Hand 2" stroke="none" stroke-width="1" fill="none" fill-rule="evenodd" blush:viewBox="304.603448275862 405.99 301.99999999999994 416.3999999999998" blush:i="0.1.0.1.0"><path d="M437.594359,459.099482 C430.459908,466.5 399.670927,470.026042 410.155878,482.00709 C424.434421,498.324894 466.954518,527 478.746408,527 C524.385174,527.002094 517.650251,473.419338 517.650251,473.419338 C517.650251,473.419338 501.97082,468.050683 499.409515,463.928566 C496.129025,458.648445 496.140591,441.73374 496.796689,427.549762 C497.453838,413.366832 440.697155,406 440.697155,406 C440.697155,406 440.593422,455.988575 437.594359,459.099482 Z" id="neck" fill="#ff8282" blush:color="Skin-500" blush:i="0.1.0.1.0.0"/><g id="tshirt" transform="translate(306.000000, 466.000000)" blush:i="0.1.0.1.0.1"><path d="M207.644654,4.69591742 C207.644654,4.69591742 205.480372,20.7431343 194.074479,36.6360674 C186.087062,47.7657081 173.521735,48.5418798 154.172693,36.6360674 C139.218146,27.4342663 117.359714,8.34743309 113.529314,0.28763309 C103.721993,4.27778837 32.4654428,21.8814084 32.4654428,57.7485691 C32.4654428,93.6157298 44.4310617,145.6773 44.4310617,163.77195 C44.4310617,181.86765 47.9507309,271.766862 39.5926119,308.165965 C29.6999592,351.247869 29.6999592,358.16055 69.2265808,353.940647 C108.753202,349.720745 230.943223,331.017187 253.990212,342.761766 C263.20731,347.458733 265.2206,334.453732 260.276365,313.996224 C255.39419,293.795498 257.623948,271.374815 255.585178,239.263578 C287.331073,231.570394 293.695175,217.314215 295.730792,203.445793 C304.326187,144.886362 279.896587,98.5935238 262.256712,48.5418798 C253.015714,22.3213367 207.644654,4.69591742 207.644654,4.69591742 Z" id="Fill-4" fill="#3615F6" blush:i="0.1.0.1.0.1.0"/><path d="M247.676427,141.37167 C247.812927,142.23267 247.223877,143.04222 246.359727,143.17452 C245.485077,143.31102 244.666077,142.69152 244.557927,141.81372 L242.886327,128.42517 C241.901387,114.38199 242.478677,99.28032 242.837777,85.75107 C242.838827,84.93627 243.992777,87.09612 243.998027,87.93717 C244.019027,105.66327 244.838277,123.87972 247.676427,141.37167 Z" id="Fill-6" fill="#090E2B" blush:i="0.1.0.1.0.1.1"/><path d="M195.999512,155.144636 C195.999512,155.144636 219.774662,136.575386 226.169162,136.56564 C239.005412,136.547036 249.040262,141.001136 249.040262,141.001136 C249.040262,141.001136 261.842078,165.060727 259.372262,172.231286 C257.480828,177.72264 227.687502,173.253197 213.28281,181.201048 C202.649794,187.067861 196.888694,178.38239 195.999512,155.144636 Z" id="hand-2" fill="#ff8282" blush:color="Skin-500" blush:i="0.1.0.1.0.1.2"/><path d="M90.6061767,165.359865 C90.6061767,165.359865 160.167627,150.784815 184.018377,148.473765 C197.879427,147.131865 210.382827,179.501265 211.485327,187.584165 C212.585727,195.666015 145.030827,241.374615 90.6061767,252.034215 C29.4457767,264.014715 17.1832567,255.825086 2.44922669,199.845015 C-6.62731128,165.359865 22.0179143,75.168348 34.0962109,48.9302258 C44.4303865,26.4809213 103.011927,78.319065 103.011927,78.319065 L90.6061767,165.359865 Z" id="Fill-10" fill="#3615F6" blush:i="0.1.0.1.0.1.3"/><path d="M98.5997217,80.267235 C101.670972,102.660585 98.6658717,125.378385 94.7399217,147.489285 C94.3797717,149.483235 91.2255717,148.900485 91.6476717,146.886585 C95.2470717,130.555935 97.8237717,113.851485 98.3309217,97.108185 C98.4338217,91.532685 98.2910217,85.946685 97.6148217,80.413185 C97.5150717,79.798935 98.5115217,79.618335 98.5997217,80.267235" id="Fill-12" fill="#090E2B" blush:i="0.1.0.1.0.1.4"/><path d="M62.655763,148.723302 C71.310913,141.474102 75.1061763,140.024478 76.6118763,140.501178 C77.9989263,140.941128 75.7497267,137.21514 79.1401767,137.21514 C90.8844267,137.21514 99.5503435,143.348379 102.01248,145.271717 C109.356015,151.008241 113.11292,157.046162 116.56217,160.176212 C107.78522,162.209012 78.8808267,166.96479 78.8808267,166.96479 C78.8808267,166.96479 68.7073698,168.892461 65.7957198,165.463161 C63.8469198,163.167861 62.8002675,157.587908 62.655763,148.723302 Z" id="hand-1" fill="#ff8282" blush:color="Skin-500" blush:i="0.1.0.1.0.1.5"/><path d="M111.952257,160.73073 C135.795657,155.27283 159.718857,150.00498 183.963357,146.64183 C197.193357,145.77348 211.352607,175.83918 213.419007,187.31463 C213.448407,187.48368 213.499857,188.02128 213.402207,188.31003 C210.870657,195.82803 195.803157,205.50168 189.497907,210.20148 C156.955257,231.22248 121.042107,249.13968 82.3989567,254.94618 C69.5763567,256.40883 51.6539067,257.59743 43.6203567,256.50228 C43.5374067,256.49073 43.6697067,256.40463 43.9227567,256.36788 C49.9109067,255.50373 56.6876067,255.24753 62.8553067,254.55138 C94.8939567,250.93098 125.753457,241.50618 154.112907,226.40928 C165.499107,220.48098 176.576607,213.94368 187.233057,206.83833 C194.729007,201.39513 203.767407,196.04958 208.979607,188.60508 C209.312457,188.13153 209.412207,187.52883 209.270457,186.96918 C206.480607,176.07648 200.983857,165.58278 194.115807,156.72918 C189.185007,150.90063 186.406707,149.34978 178.983207,150.94263 C157.146357,154.18083 133.909857,158.31468 112.113957,161.56863 C111.625707,161.66103 111.405207,160.84098 111.952257,160.73073" id="Fill-16" fill="#090E2B" blush:i="0.1.0.1.0.1.6"/><path d="M254.317231,239.96796 C226.60043,244.344932 188.952901,235.0043 166.745877,224.892135 C164.617527,223.850535 166.293327,220.503135 168.411177,221.627685 C187.194627,229.965735 207.28849,235.733025 228.053277,238.437135 C234.887727,239.565885 247.933826,239.288197 255.496679,239.288197 C255.925079,239.295547 255.37483,239.800947 254.317231,239.96796 Z" id="Fill-18" fill="#090E2B" blush:i="0.1.0.1.0.1.7"/></g></g></g><g id="Head" transform="translate(399.000000, 26.000000) scale(1 1)" blush:width="300" blush:height="300" blush:component="Head" blush:i="0.1.0.2" blush:value="Bald" blush:viewBox="81 76.5 157.49999999999997 189"><g id="Head/Bald" stroke="none" stroke-width="1" fill="none" fill-rule="evenodd" blush:viewBox="81 76.5 157.49999999999997 189" blush:i="0.1.0.2.0"><path d="M231.731517,145.493017 C231.731517,171.897935 237.188273,185.00092 237.188273,208.837991 C237.188273,248.803762 221.518054,272.017918 166.345293,262.271733 C154.072171,260.103704 124.583948,247.48695 115.395565,233.500646 C100.588713,210.96206 107.0433,203.3898 101.5123,202.6388 C94.4343,186.9158 90.1253,139.6888 97.4903,119.2218 C106.2253,94.9498 123.0523,79.4788 145.0333,77.3538 C159.108378,75.993621 187.099762,74.4832929 210.134525,97.2387744 C222.934127,109.883189 231.731517,127.541201 231.731517,145.493017 Z" id="Fill-1" fill="#ff8282" blush:color="Skin-500" blush:i="0.1.0.2.0.0"/><path d="M144.920043,256.918707 C140.6296,254.843331 132.554968,250.4305 130.673968,247.9755 C129.693968,246.6965 132.914301,248.213827 134.604301,249.270827 C136.853301,250.676827 145.9816,254.6065 157.1826,258.7265 C158.1536,259.0835 164.3636,261.0765 164.5416,261.4005 C164.7086,261.7035 164.1556,262.3025 163.4386,262.2705 C158.6216,262.0525 149.649145,259.206271 144.920043,256.918707 Z" id="Fill-4" fill="#090E2B" blush:i="0.1.0.2.0.1"/><path d="M113.1651,205.0459 C91.6431,212.6819 69.4721,175.8759 87.8151,165.8519 C95.6081,161.5929 99.6481,164.5129 107.6201,173.3059 C114.4891,180.8829 121.9361,201.9339 113.1651,205.0459" id="Fill-6" fill="#ff8282" blush:color="Skin-500" blush:i="0.1.0.2.0.2"/><path d="M104.0763,183.7891 C101.2033,178.0211 94.2823,174.4471 88.3043,178.4831 C86.9513,179.3961 88.7753,180.0211 89.3463,179.9571 C96.4473,179.0281 99.2663,180.9691 101.5993,185.0061 C99.3683,185.5531 97.1393,187.5381 96.8543,189.7801 C96.6803,191.1561 97.1563,195.2291 98.2063,193.9441 C98.9323,193.0561 97.3323,186.9981 102.6213,187.5511 C102.7013,187.5691 102.7733,187.5731 102.8483,187.5801 C103.0973,188.1781 105.0883,189.4161 105.9433,188.3781 C106.4673,187.7441 105.3883,186.4261 104.0763,183.7891" id="Fill-8" fill="#090E2B" blush:i="0.1.0.2.0.3"/></g></g><g id="Expressions" transform="translate(520.000000, 159.000000) scale(1 1)" blush:width="120" blush:height="120" blush:component="Expressions" blush:i="0.1.0.3" blush:value="Happy" blush:viewBox="21 10.200000000000003 89.4 91.80000000000001"><g id="Expressions/Happy" stroke="none" stroke-width="1" fill="none" fill-rule="evenodd" blush:viewBox="21 10.200000000000003 89.4 91.80000000000001" blush:i="0.1.0.3.0"><g id="eye1" transform="translate(21.027098, 10.213671)" blush:i="0.1.0.3.0.0"><path d="M0.0487023333,7.96572872 C1.82485498,-0.0171869856 25.1977023,-2.81531309 35.4827023,3.36568691 C39.0387023,5.47868691 45.6427023,11.2837287 39.7957023,14.4437287 C38.2517023,15.1157287 36.7517023,14.4267287 35.4827023,13.6077287 C21.4647023,3.86572872 -1.18942441,13.5304877 0.0487023333,7.96572872 Z" id="Fill-1" fill="#090E2B" blush:i="0.1.0.3.0.0.0"/><path d="M19.0113023,22.3973287 C13.7233023,23.8973287 9.19030233,28.1473287 8.76930233,31.6693287 C8.51430233,33.7973287 16.8643023,38.9063287 24.9173023,39.3033287 C35.5113023,39.8243287 40.8513023,34.0853287 40.8324531,32.2513287 C40.1193023,26.7013287 33.7283023,18.2233287 19.0113023,22.3973287 Z" id="Fill-6" fill="#FFF" blush:i="0.1.0.3.0.0.1"/><path d="M35.3981023,25.5550287 C27.2551023,19.4010287 14.6431023,23.4110287 8.76910233,31.6690287 C8.43210233,32.0970287 8.52910233,31.0200287 8.76310233,30.5290287 C11.5971023,24.5820287 16.7101023,21.7750287 22.6381023,20.5510287 C26.2051023,19.8140287 29.5311023,19.7540287 33.0101023,21.3120287 C34.3551023,21.9130287 36.7311023,23.7450287 38.5671023,25.8170287 C39.9991023,27.4320287 41.2051023,30.2010287 39.5481023,29.2220287 C38.2511023,28.4550287 36.4781023,26.3720287 35.3981023,25.5550287 Z" id="Fill-8" fill="#090E2B" blush:i="0.1.0.3.0.0.2"/><path d="M24.8135023,36.0623287 C29.3405023,36.0623287 33.0105023,32.7143287 33.0105023,28.5833287 C33.0105023,24.4533287 29.3405023,21.1043287 24.8135023,21.1043287 C20.2865023,21.1043287 16.6165023,24.4533287 16.6165023,28.5833287 C16.6165023,32.7143287 20.2865023,36.0623287 24.8135023,36.0623287 Z" id="Fill-10" fill="#090E2B" blush:i="0.1.0.3.0.0.3"/></g><g id="eye2" transform="translate(81.203378, 15.000183)" blush:i="0.1.0.3.0.1"><path d="M23.2557812,1.861246 C26.6096324,3.34897691 31.0744206,8.28711729 27.357522,8.28711729 C23.6406234,8.28711729 15.5900245,7.23270759 10.1930245,9.45970759 C8.30802454,9.94170759 6.87752199,10.8641173 4.98452199,11.0891173 C0.67652199,11.9281173 -1.66408888,6.76839233 1.38185604,3.64904337 C4.82290212,0.125071736 16.4397812,-1.545754 23.2557812,1.861246 Z" id="Fill-4" fill="#090E2B" blush:i="0.1.0.3.0.1.0"/><path d="M19.455322,34.2343173 C24.826322,32.9853173 28.843322,28.1153173 28.389322,24.4763173 C27.503322,19.6543173 18.218322,16.5753173 13.017322,19.2083173 C7.86632199,21.8153173 4.64332199,27.6403173 5.05932199,29.9403173 C5.66032199,31.5323173 13.966322,35.5113173 19.455322,34.2343173 Z" id="Fill-12" fill="#FFF" blush:i="0.1.0.3.0.1.1"/><path d="M15.011222,31.6060173 C18.549222,31.6060173 21.417222,28.8520173 21.417222,25.4560173 C21.417222,22.0590173 19.396222,18.8490173 15.011222,19.3060173 C11.492222,19.6720173 8.60422199,22.0590173 8.60422199,25.4560173 C8.60422199,28.8520173 11.473222,31.6060173 15.011222,31.6060173 Z" id="Fill-14" fill="#090E2B" blush:i="0.1.0.3.0.1.2"/><path d="M5.25072199,26.6376173 C7.27972199,19.0636173 16.440722,15.1686173 23.685722,18.7546173 C24.705722,19.2866173 26.361722,20.4806173 27.601722,21.9226173 C28.742722,23.2526173 28.593722,23.9496173 28.127722,23.8116173 C27.355722,23.5816173 25.722722,22.1166173 24.395722,21.4866173 C17.685722,18.3036173 10.704722,20.0896173 5.59372199,27.5586173 C5.34272199,27.9456173 5.10472199,27.0746173 5.25072199,26.6376173" id="Fill-22" fill="#090E2B" blush:i="0.1.0.3.0.1.3"/></g><path d="M89.773817,88.8585998 C81.203378,89.8585998 88.1482904,99.3833823 83.7083884,100.648667 C72.3411441,103.888108 60,99.9572383 58.0067117,89.8585998 C56.8303329,83.8986871 60.3418642,84.6193542 63.1467832,84.8682179 C65.9517021,85.1170816 79.8038764,85.6292987 87.244688,85.6292987 C94.4593207,85.6292987 90.833428,88.7349642 89.773817,88.8585998 Z" id="Fill-18" fill="#090E2B" blush:i="0.1.0.3.0.2"/><path d="M79.5163974,56.0474227 C79.9047316,56.0474227 82.4878873,60.4695558 83.4356699,62.0222568 C86.4544009,66.9676809 89.7813295,72.5049636 84.8702,75.6883 C82.4912,77.2313 75.0122,74.8407787 75.0122,73.0253 C75.0122,70.2632077 81.8382,75.1193 83.4442,72.3153 C84.3857451,70.8872578 80.8590997,63.6440183 79.5163974,59.348811 C78.7670658,56.9517537 79.1280631,56.0474227 79.5163974,56.0474227 Z" id="nose" fill="#090E2B" blush:i="0.1.0.3.0.3"/></g></g><g id="Facial Accesories" transform="translate(517.000000, 209.000000) scale(1 1)" fill="#000" blush:width="120" blush:height="110" blush:component="Facial Accesories" blush:i="0.1.0.4" blush:value="None" blush:viewBox="210 192.5 0 0"><g id="Facial Accesories/None" stroke="none" stroke-width="1" fill="none" fill-rule="evenodd" fill-opacity="0" blush:viewBox="210 192.5 0 0" blush:i="0.1.0.4.0"/></g><g id="Glass" transform="translate(520.000000, 164.000000) scale(1 1)" fill="#000" blush:width="120" blush:height="75" blush:component="Glass" blush:i="0.1.0.5" blush:value="None" blush:viewBox="210 131.25 0 0"><g id="Glass/None" stroke="none" stroke-width="1" fill="none" fill-rule="evenodd" fill-opacity="0" blush:viewBox="210 131.25 0 0" blush:i="0.1.0.5.0"/></g></g></g></g></svg>